<?xml version="1.0" encoding="UTF-8" standalone="no"?>
<svg
   xmlns:dc="http://purl.org/dc/elements/1.1/"
   xmlns:cc="http://creativecommons.org/ns#"
   xmlns:rdf="http://www.w3.org/1999/02/22-rdf-syntax-ns#"
   xmlns:svg="http://www.w3.org/2000/svg"
   xmlns="http://www.w3.org/2000/svg"
   xmlns:sodipodi="http://sodipodi.sourceforge.net/DTD/sodipodi-0.dtd"
   xmlns:inkscape="http://www.inkscape.org/namespaces/inkscape"
   inkscape:version="1.0 (4035a4fb49, 2020-05-01)"
   sodipodi:docname="touchpad.svg"
   xml:space="preserve"
   style="enable-background:new -827 465.8 263.9 151.2;"
   viewBox="-827 465.8 263.9 151.2"
   height="151.2px"
   width="263.9px"
   y="0px"
   x="0px"
   id="Layer_1"
   version="1.1"><metadata
   id="metadata29"><rdf:RDF><cc:Work
       rdf:about=""><dc:format>image/svg+xml</dc:format><dc:type
         rdf:resource="http://purl.org/dc/dcmitype/StillImage" /><dc:title></dc:title></cc:Work></rdf:RDF></metadata><defs
   id="defs27" /><sodipodi:namedview
   inkscape:current-layer="g22"
   inkscape:window-maximized="1"
   inkscape:window-y="1072"
   inkscape:window-x="3832"
   inkscape:cy="70.269188"
   inkscape:cx="111.46846"
   inkscape:zoom="3.564186"
   showgrid="false"
   id="namedview25"
   inkscape:window-height="1017"
   inkscape:window-width="1920"
   inkscape:pageshadow="2"
   inkscape:pageopacity="0"
   guidetolerance="10"
   gridtolerance="10"
   objecttolerance="10"
   borderopacity="1"
   bordercolor="#666666"
   pagecolor="#ffffff" />
<style
   id="style2"
   type="text/css">
	.st0{fill:none;}
	.st1{fill:#4C4C4C;}
	.st2{fill:#EDEDED;}
	.st3{fill:#F7F7F7;}
	.st4{opacity:0.12;}
	.st5{fill:url(#SVGID_1_);}
</style>
<pattern
   style="overflow:visible;"
   viewBox="0 -71 71 71"
   id="New_Pattern_Swatch_5"
   patternUnits="userSpaceOnUse"
   height="71"
   width="71"
   y="617"
   x="-827">
	<g
   id="g8">
		<polygon
   id="polygon4"
   points="0,-71 71,-71 71,0 0,0   "
   class="st0" />
		<path
   id="path6"
   d="M41.8-35.5c0,3.5-2.8,6.3-6.3,6.3c-3.5,0-6.3-2.8-6.3-6.3s2.8-6.3,6.3-6.3C39-41.8,41.8-39,41.8-35.5z"
   class="st1" />
	</g>
</pattern>
<g
   id="g22">
	<path
   style="fill:#ffcc00;fill-opacity:1"
   id="path11"
   d="M-563.2,471.4c-0.4-3.2-3.3-5.6-6.5-5.6l0,0H-695h0h-125.3l0,0c-3.2,0-6.1,2.3-6.5,5.6   c-0.1,0.7-0.1,1.4-0.1,2.1v127.4c0,8.9,7.2,16.1,16.1,16.1h115.8h0h115.8c8.9,0,16.1-7.2,16.1-16.1V473.5   C-563.1,472.7-563.1,472-563.2,471.4z"
   class="st2" />
	<g
   id="g20">
		<path
   style="fill:#ffcc00;fill-opacity:1"
   id="path13"
   d="M-567.6,467.7c0-1-0.8-1.9-1.9-1.9H-695h0h-125.6c-1,0-1.9,0.8-1.9,1.9l0,6v123.2c0,8.6,7,15.6,15.6,15.6    h111.9h0h111.9c8.6,0,15.6-7,15.6-15.6V473.7L-567.6,467.7z"
   class="st3" />
		
	</g>
<g
   id="g2234"
   transform="translate(-1190.3805,246.84965)"><path
     inkscape:export-ydpi="30"
     inkscape:export-xdpi="30"
     style="fill:#0c0c0c;fill-opacity:1;stroke:none;stroke-width:1px;stroke-linecap:butt;stroke-linejoin:miter;stroke-opacity:1"
     d="m 407.24165,267.47584 v 49.64586 h 21.49729 v -24.82293 l 10.74865,11.17032 10.74865,-11.17032 v 24.82293 h 5.34969 l 21.49731,-49.64586 h -26.847 l -10.74865,12.41146 -10.74863,-12.41146 z"
     id="path871-4-6"
     sodipodi:nodetypes="ccccccccccccc" /><path
     inkscape:export-ydpi="30"
     inkscape:export-xdpi="30"
     style="fill:#0c0c0c;fill-opacity:1;stroke:none;stroke-width:1px;stroke-linecap:butt;stroke-linejoin:miter;stroke-opacity:1"
     d="m 487.21178,286.09304 -3.98751,9.20895 7.97511,-2e-5 z"
     id="path875-3-8"
     sodipodi:nodetypes="cccc" /><path
     inkscape:export-ydpi="30"
     inkscape:export-xdpi="30"
     style="fill:#0c0c0c;fill-opacity:1;stroke:none;stroke-width:1px;stroke-linecap:butt;stroke-linejoin:miter;stroke-opacity:1"
     d="m 479.47281,303.96555 -5.69675,13.15613 h 26.87143 l -5.69667,-13.15611 z"
     id="path877-1-0"
     sodipodi:nodetypes="ccccc" /><path
     inkscape:export-ydpi="30"
     inkscape:export-xdpi="30"
     style="fill:#0c0c0c;fill-opacity:1;stroke:none;stroke-width:1px;stroke-linecap:butt;stroke-linejoin:miter;stroke-opacity:1"
     d="m 497.96048,267.47584 h 51.16327 v 17.37602 h -17.19786 v 32.26982 h -12.46834 l -6.87917,-15.88685 v -16.38294 h -7.09392 z"
     id="path879-8-4"
     sodipodi:nodetypes="cccccccccc" /><path
     inkscape:export-ydpi="30"
     inkscape:export-xdpi="30"
     sodipodi:nodetypes="ccccccccccccc"
     style="fill:#0c0c0c;fill-opacity:1;stroke:none;stroke-width:1px;stroke-linecap:butt;stroke-linejoin:miter;stroke-opacity:1"
     d="m 553.4233,267.47581 v 49.64587 h 19.34756 l -2e-5,-17.37604 h 17.1978 v 17.37604 h 19.34762 v -49.64583 h -19.34762 v 17.37604 h -17.1978 v -17.37605 z"
     id="path881-0-3" /><rect
     inkscape:export-ydpi="30"
     inkscape:export-xdpi="30"
     rx="0"
     ry="0"
     y="267.47589"
     x="381.44482"
     height="49.648991"
     width="21.497307"
     id="rect957"
     style="fill:#0c0c0c;fill-opacity:1;stroke-width:16;stroke-linecap:round;stroke-linejoin:round" /></g></g>
</svg>
